<svg fill="#ff0000" width="64px" height="64px" viewBox="-0.28 0 1.92 1.92" xmlns="http://www.w3.org/2000/svg"><path d="M0.672 1.344a0.384 0.384 0 0 0 0.384 -0.384V0.384a0.384 0.384 0 1 0 -0.768 0V0.96a0.384 0.384 0 0 0 0.384 0.384"/><path d="M1.344 0.96V0.768a0.096 0.096 0 1 0 -0.192 0V0.96a0.48 0.48 0 1 1 -0.96 0V0.768a0.096 0.096 0 1 0 -0.192 0V0.96a0.672 0.672 0 0 0 0.572 0.664l0.004 0V1.728H0.288a0.096 0.096 0 1 0 0 0.192h0.768a0.096 0.096 0 1 0 0 -0.192H0.768v-0.104c0.327 -0.049 0.575 -0.327 0.576 -0.664z"/></svg>